<mxfile host="app.diagrams.net" agent="Mozilla/5.0 (Windows NT 10.0; Win64; x64) AppleWebKit/537.36 (KHTML, like Gecko) Chrome/128.0.0.0 Safari/537.36 OPR/114.0.0.0" version="24.8.6">
  <diagram name="Page-1" id="58cdce13-f638-feb5-8d6f-7d28b1aa9fa0">
    <mxGraphModel dx="1687" dy="898" grid="1" gridSize="10" guides="1" tooltips="1" connect="1" arrows="1" fold="1" page="1" pageScale="1" pageWidth="1169" pageHeight="827" background="none" math="0" shadow="0">
      <root>
        <mxCell id="0" />
        <mxCell id="1" parent="0" />
        <mxCell id="ke13yG8VGX8CHg303tFW-14" style="edgeStyle=orthogonalEdgeStyle;rounded=0;orthogonalLoop=1;jettySize=auto;html=1;entryX=0;entryY=0.5;entryDx=0;entryDy=0;" edge="1" parent="1" source="382b91b5511bd0f7-1" target="ke13yG8VGX8CHg303tFW-8">
          <mxGeometry relative="1" as="geometry">
            <mxPoint x="164" y="156" as="targetPoint" />
          </mxGeometry>
        </mxCell>
        <mxCell id="382b91b5511bd0f7-1" value="START" style="ellipse;html=1;shape=startState;fillColor=#ffe6cc;strokeColor=#d79b00;rounded=1;shadow=0;comic=0;labelBackgroundColor=none;fontFamily=Verdana;fontSize=12;align=center;direction=south;" parent="1" vertex="1">
          <mxGeometry x="8" y="26" width="30" height="30" as="geometry" />
        </mxCell>
        <mxCell id="ke13yG8VGX8CHg303tFW-16" value="" style="edgeStyle=orthogonalEdgeStyle;rounded=0;orthogonalLoop=1;jettySize=auto;html=1;" edge="1" parent="1" source="ke13yG8VGX8CHg303tFW-8" target="ke13yG8VGX8CHg303tFW-15">
          <mxGeometry relative="1" as="geometry" />
        </mxCell>
        <mxCell id="ke13yG8VGX8CHg303tFW-8" value="Display Menu Options" style="rounded=1;whiteSpace=wrap;html=1;arcSize=24;fillColor=#ffe6cc;strokeColor=#d79b00;shadow=0;comic=0;labelBackgroundColor=none;fontFamily=Verdana;fontSize=12;align=center;" vertex="1" parent="1">
          <mxGeometry x="68" y="11" width="120" height="60" as="geometry" />
        </mxCell>
        <mxCell id="ke13yG8VGX8CHg303tFW-25" style="edgeStyle=orthogonalEdgeStyle;rounded=0;orthogonalLoop=1;jettySize=auto;html=1;entryX=0;entryY=0.5;entryDx=0;entryDy=0;" edge="1" parent="1" source="ke13yG8VGX8CHg303tFW-15" target="ke13yG8VGX8CHg303tFW-17">
          <mxGeometry relative="1" as="geometry" />
        </mxCell>
        <mxCell id="ke13yG8VGX8CHg303tFW-61" value="Choice&lt;div&gt;1&lt;/div&gt;" style="edgeLabel;html=1;align=center;verticalAlign=middle;resizable=0;points=[];" vertex="1" connectable="0" parent="ke13yG8VGX8CHg303tFW-25">
          <mxGeometry x="0.7015" relative="1" as="geometry">
            <mxPoint as="offset" />
          </mxGeometry>
        </mxCell>
        <mxCell id="ke13yG8VGX8CHg303tFW-38" style="edgeStyle=orthogonalEdgeStyle;rounded=0;orthogonalLoop=1;jettySize=auto;html=1;entryX=0;entryY=0.5;entryDx=0;entryDy=0;" edge="1" parent="1" source="ke13yG8VGX8CHg303tFW-15" target="ke13yG8VGX8CHg303tFW-20">
          <mxGeometry relative="1" as="geometry" />
        </mxCell>
        <mxCell id="ke13yG8VGX8CHg303tFW-39" style="edgeStyle=orthogonalEdgeStyle;rounded=0;orthogonalLoop=1;jettySize=auto;html=1;entryX=0;entryY=0.5;entryDx=0;entryDy=0;" edge="1" parent="1" source="ke13yG8VGX8CHg303tFW-15" target="ke13yG8VGX8CHg303tFW-21">
          <mxGeometry relative="1" as="geometry" />
        </mxCell>
        <mxCell id="ke13yG8VGX8CHg303tFW-40" style="edgeStyle=orthogonalEdgeStyle;rounded=0;orthogonalLoop=1;jettySize=auto;html=1;entryX=0;entryY=0.5;entryDx=0;entryDy=0;" edge="1" parent="1" source="ke13yG8VGX8CHg303tFW-15" target="ke13yG8VGX8CHg303tFW-22">
          <mxGeometry relative="1" as="geometry" />
        </mxCell>
        <mxCell id="ke13yG8VGX8CHg303tFW-41" style="edgeStyle=orthogonalEdgeStyle;rounded=0;orthogonalLoop=1;jettySize=auto;html=1;entryX=0;entryY=0.5;entryDx=0;entryDy=0;" edge="1" parent="1" source="ke13yG8VGX8CHg303tFW-15" target="ke13yG8VGX8CHg303tFW-23">
          <mxGeometry relative="1" as="geometry" />
        </mxCell>
        <mxCell id="ke13yG8VGX8CHg303tFW-65" value="Choice&lt;div&gt;5&lt;/div&gt;" style="edgeLabel;html=1;align=center;verticalAlign=middle;resizable=0;points=[];" vertex="1" connectable="0" parent="ke13yG8VGX8CHg303tFW-41">
          <mxGeometry x="0.8767" relative="1" as="geometry">
            <mxPoint x="-2" y="2" as="offset" />
          </mxGeometry>
        </mxCell>
        <mxCell id="ke13yG8VGX8CHg303tFW-42" style="edgeStyle=orthogonalEdgeStyle;rounded=0;orthogonalLoop=1;jettySize=auto;html=1;entryX=0;entryY=0.5;entryDx=0;entryDy=0;" edge="1" parent="1" source="ke13yG8VGX8CHg303tFW-15" target="ke13yG8VGX8CHg303tFW-19">
          <mxGeometry relative="1" as="geometry" />
        </mxCell>
        <mxCell id="ke13yG8VGX8CHg303tFW-66" value="Choice&lt;div&gt;6&lt;/div&gt;" style="edgeLabel;html=1;align=center;verticalAlign=middle;resizable=0;points=[];" vertex="1" connectable="0" parent="ke13yG8VGX8CHg303tFW-42">
          <mxGeometry x="0.8986" y="-2" relative="1" as="geometry">
            <mxPoint x="-3" as="offset" />
          </mxGeometry>
        </mxCell>
        <mxCell id="ke13yG8VGX8CHg303tFW-43" style="edgeStyle=orthogonalEdgeStyle;rounded=0;orthogonalLoop=1;jettySize=auto;html=1;entryX=0;entryY=0.5;entryDx=0;entryDy=0;" edge="1" parent="1" source="ke13yG8VGX8CHg303tFW-15" target="ke13yG8VGX8CHg303tFW-24">
          <mxGeometry relative="1" as="geometry" />
        </mxCell>
        <mxCell id="ke13yG8VGX8CHg303tFW-44" style="edgeStyle=orthogonalEdgeStyle;rounded=0;orthogonalLoop=1;jettySize=auto;html=1;entryX=0;entryY=0.5;entryDx=0;entryDy=0;" edge="1" parent="1" source="ke13yG8VGX8CHg303tFW-15" target="ke13yG8VGX8CHg303tFW-18">
          <mxGeometry relative="1" as="geometry" />
        </mxCell>
        <mxCell id="ke13yG8VGX8CHg303tFW-68" value="Choice&lt;div&gt;7&lt;/div&gt;" style="edgeLabel;html=1;align=center;verticalAlign=middle;resizable=0;points=[];" vertex="1" connectable="0" parent="ke13yG8VGX8CHg303tFW-44">
          <mxGeometry x="0.9082" y="-1" relative="1" as="geometry">
            <mxPoint as="offset" />
          </mxGeometry>
        </mxCell>
        <mxCell id="ke13yG8VGX8CHg303tFW-15" value="Menu&amp;nbsp;&lt;div&gt;Choice&lt;/div&gt;" style="rhombus;whiteSpace=wrap;html=1;fillColor=#ffe6cc;strokeColor=#d79b00;" vertex="1" parent="1">
          <mxGeometry x="88" y="96" width="80" height="80" as="geometry" />
        </mxCell>
        <mxCell id="ke13yG8VGX8CHg303tFW-50" style="edgeStyle=orthogonalEdgeStyle;rounded=0;orthogonalLoop=1;jettySize=auto;html=1;entryX=0;entryY=0.5;entryDx=0;entryDy=0;" edge="1" parent="1" source="ke13yG8VGX8CHg303tFW-17" target="ke13yG8VGX8CHg303tFW-48">
          <mxGeometry relative="1" as="geometry" />
        </mxCell>
        <mxCell id="ke13yG8VGX8CHg303tFW-17" value="Invoke Add Asset Process&lt;div&gt;(With Validation)&lt;/div&gt;" style="rounded=1;whiteSpace=wrap;html=1;arcSize=24;fillColor=#ffe6cc;strokeColor=#d79b00;shadow=0;comic=0;labelBackgroundColor=none;fontFamily=Verdana;fontSize=12;align=center;" vertex="1" parent="1">
          <mxGeometry x="300" y="11" width="120" height="60" as="geometry" />
        </mxCell>
        <mxCell id="ke13yG8VGX8CHg303tFW-121" value="" style="edgeStyle=orthogonalEdgeStyle;rounded=0;orthogonalLoop=1;jettySize=auto;html=1;entryX=0;entryY=0.5;entryDx=0;entryDy=0;" edge="1" parent="1" source="ke13yG8VGX8CHg303tFW-18" target="ke13yG8VGX8CHg303tFW-166">
          <mxGeometry relative="1" as="geometry">
            <mxPoint x="560" y="1191" as="targetPoint" />
          </mxGeometry>
        </mxCell>
        <mxCell id="ke13yG8VGX8CHg303tFW-18" value="Exit" style="rounded=1;whiteSpace=wrap;html=1;arcSize=24;fillColor=#ffe6cc;strokeColor=#d79b00;shadow=0;comic=0;labelBackgroundColor=none;fontFamily=Verdana;fontSize=12;align=center;" vertex="1" parent="1">
          <mxGeometry x="300" y="1161" width="120" height="60" as="geometry" />
        </mxCell>
        <mxCell id="ke13yG8VGX8CHg303tFW-19" value="Invoke Display Errors Process" style="rounded=1;whiteSpace=wrap;html=1;arcSize=24;fillColor=#ffe6cc;strokeColor=#d79b00;shadow=0;comic=0;labelBackgroundColor=none;fontFamily=Verdana;fontSize=12;align=center;" vertex="1" parent="1">
          <mxGeometry x="300" y="878" width="120" height="60" as="geometry" />
        </mxCell>
        <mxCell id="ke13yG8VGX8CHg303tFW-29" style="edgeStyle=orthogonalEdgeStyle;rounded=0;orthogonalLoop=1;jettySize=auto;html=1;entryX=0;entryY=0.5;entryDx=0;entryDy=0;" edge="1" parent="1" source="ke13yG8VGX8CHg303tFW-20" target="ke13yG8VGX8CHg303tFW-28">
          <mxGeometry relative="1" as="geometry" />
        </mxCell>
        <mxCell id="ke13yG8VGX8CHg303tFW-20" value="Invoke Remove&lt;div&gt;Asset Process&lt;/div&gt;" style="rounded=1;whiteSpace=wrap;html=1;arcSize=24;fillColor=#ffe6cc;strokeColor=#d79b00;shadow=0;comic=0;labelBackgroundColor=none;fontFamily=Verdana;fontSize=12;align=center;" vertex="1" parent="1">
          <mxGeometry x="300" y="189" width="120" height="60" as="geometry" />
        </mxCell>
        <mxCell id="ke13yG8VGX8CHg303tFW-46" style="edgeStyle=orthogonalEdgeStyle;rounded=0;orthogonalLoop=1;jettySize=auto;html=1;entryX=0;entryY=0.5;entryDx=0;entryDy=0;" edge="1" parent="1" source="ke13yG8VGX8CHg303tFW-21" target="ke13yG8VGX8CHg303tFW-37">
          <mxGeometry relative="1" as="geometry" />
        </mxCell>
        <mxCell id="ke13yG8VGX8CHg303tFW-21" value="Invoke Update Asset Process" style="rounded=1;whiteSpace=wrap;html=1;arcSize=24;fillColor=#ffe6cc;strokeColor=#d79b00;shadow=0;comic=0;labelBackgroundColor=none;fontFamily=Verdana;fontSize=12;align=center;" vertex="1" parent="1">
          <mxGeometry x="300" y="283" width="120" height="60" as="geometry" />
        </mxCell>
        <mxCell id="ke13yG8VGX8CHg303tFW-129" style="edgeStyle=orthogonalEdgeStyle;rounded=0;orthogonalLoop=1;jettySize=auto;html=1;endArrow=none;endFill=0;" edge="1" parent="1" source="ke13yG8VGX8CHg303tFW-22">
          <mxGeometry relative="1" as="geometry">
            <mxPoint x="1150" y="450" as="targetPoint" />
            <Array as="points">
              <mxPoint x="360" y="690" />
              <mxPoint x="1150" y="690" />
            </Array>
          </mxGeometry>
        </mxCell>
        <mxCell id="ke13yG8VGX8CHg303tFW-22" value="Display Assets Process" style="rounded=1;whiteSpace=wrap;html=1;arcSize=24;fillColor=#ffe6cc;strokeColor=#d79b00;shadow=0;comic=0;labelBackgroundColor=none;fontFamily=Verdana;fontSize=12;align=center;" vertex="1" parent="1">
          <mxGeometry x="300" y="718" width="120" height="60" as="geometry" />
        </mxCell>
        <mxCell id="ke13yG8VGX8CHg303tFW-54" style="edgeStyle=orthogonalEdgeStyle;rounded=0;orthogonalLoop=1;jettySize=auto;html=1;entryX=0;entryY=0.5;entryDx=0;entryDy=0;" edge="1" parent="1" source="ke13yG8VGX8CHg303tFW-23" target="ke13yG8VGX8CHg303tFW-53">
          <mxGeometry relative="1" as="geometry" />
        </mxCell>
        <mxCell id="ke13yG8VGX8CHg303tFW-23" value="Search Assets Process" style="rounded=1;whiteSpace=wrap;html=1;arcSize=24;fillColor=#ffe6cc;strokeColor=#d79b00;shadow=0;comic=0;labelBackgroundColor=none;fontFamily=Verdana;fontSize=12;align=center;" vertex="1" parent="1">
          <mxGeometry x="300" y="798" width="120" height="60" as="geometry" />
        </mxCell>
        <mxCell id="ke13yG8VGX8CHg303tFW-79" value="" style="edgeStyle=orthogonalEdgeStyle;rounded=0;orthogonalLoop=1;jettySize=auto;html=1;" edge="1" parent="1" source="ke13yG8VGX8CHg303tFW-24" target="ke13yG8VGX8CHg303tFW-78">
          <mxGeometry relative="1" as="geometry" />
        </mxCell>
        <mxCell id="ke13yG8VGX8CHg303tFW-24" value="Invoke Admin Menu Process" style="rounded=1;whiteSpace=wrap;html=1;arcSize=24;fillColor=#ffe6cc;strokeColor=#d79b00;shadow=0;comic=0;labelBackgroundColor=none;fontFamily=Verdana;fontSize=12;align=center;" vertex="1" parent="1">
          <mxGeometry x="300" y="962" width="120" height="60" as="geometry" />
        </mxCell>
        <mxCell id="ke13yG8VGX8CHg303tFW-31" value="" style="edgeStyle=orthogonalEdgeStyle;rounded=0;orthogonalLoop=1;jettySize=auto;html=1;" edge="1" parent="1" source="ke13yG8VGX8CHg303tFW-28" target="ke13yG8VGX8CHg303tFW-30">
          <mxGeometry relative="1" as="geometry" />
        </mxCell>
        <mxCell id="ke13yG8VGX8CHg303tFW-58" value="Asset&lt;div&gt;Number&amp;nbsp;&lt;/div&gt;&lt;div&gt;Found&lt;/div&gt;" style="edgeLabel;html=1;align=center;verticalAlign=middle;resizable=0;points=[];" vertex="1" connectable="0" parent="ke13yG8VGX8CHg303tFW-31">
          <mxGeometry x="-0.3286" y="-2" relative="1" as="geometry">
            <mxPoint x="-11" y="-2" as="offset" />
          </mxGeometry>
        </mxCell>
        <mxCell id="ke13yG8VGX8CHg303tFW-55" style="edgeStyle=orthogonalEdgeStyle;rounded=0;orthogonalLoop=1;jettySize=auto;html=1;entryX=0;entryY=0.5;entryDx=0;entryDy=0;" edge="1" parent="1" source="ke13yG8VGX8CHg303tFW-28" target="ke13yG8VGX8CHg303tFW-8">
          <mxGeometry relative="1" as="geometry">
            <mxPoint x="1040" y="41" as="targetPoint" />
            <Array as="points">
              <mxPoint x="644" y="40" />
              <mxPoint x="1150" y="40" />
              <mxPoint x="1150" y="1280" />
              <mxPoint x="50" y="1280" />
              <mxPoint x="50" y="41" />
            </Array>
          </mxGeometry>
        </mxCell>
        <mxCell id="ke13yG8VGX8CHg303tFW-56" value="Asset Number&lt;div&gt;Not Found&lt;/div&gt;" style="edgeLabel;html=1;align=center;verticalAlign=middle;resizable=0;points=[];" vertex="1" connectable="0" parent="ke13yG8VGX8CHg303tFW-55">
          <mxGeometry x="-0.7378" y="-2" relative="1" as="geometry">
            <mxPoint x="-351" y="108" as="offset" />
          </mxGeometry>
        </mxCell>
        <mxCell id="ke13yG8VGX8CHg303tFW-28" value="Blue Badge Input" style="rhombus;whiteSpace=wrap;html=1;fillColor=#ffe6cc;strokeColor=#d79b00;" vertex="1" parent="1">
          <mxGeometry x="599" y="177" width="90" height="84" as="geometry" />
        </mxCell>
        <mxCell id="ke13yG8VGX8CHg303tFW-34" value="" style="edgeStyle=orthogonalEdgeStyle;rounded=0;orthogonalLoop=1;jettySize=auto;html=1;" edge="1" parent="1" source="ke13yG8VGX8CHg303tFW-30" target="ke13yG8VGX8CHg303tFW-33">
          <mxGeometry relative="1" as="geometry" />
        </mxCell>
        <mxCell id="ke13yG8VGX8CHg303tFW-59" value="Yes" style="edgeLabel;html=1;align=center;verticalAlign=middle;resizable=0;points=[];" vertex="1" connectable="0" parent="ke13yG8VGX8CHg303tFW-34">
          <mxGeometry x="-0.3333" y="-4" relative="1" as="geometry">
            <mxPoint x="9" y="-5" as="offset" />
          </mxGeometry>
        </mxCell>
        <mxCell id="ke13yG8VGX8CHg303tFW-36" style="edgeStyle=orthogonalEdgeStyle;rounded=0;orthogonalLoop=1;jettySize=auto;html=1;entryX=0;entryY=0.5;entryDx=0;entryDy=0;exitX=0.5;exitY=0;exitDx=0;exitDy=0;" edge="1" parent="1" source="ke13yG8VGX8CHg303tFW-30" target="ke13yG8VGX8CHg303tFW-8">
          <mxGeometry relative="1" as="geometry">
            <mxPoint x="1040" y="41" as="targetPoint" />
            <Array as="points">
              <mxPoint x="857" y="40" />
              <mxPoint x="1150" y="40" />
              <mxPoint x="1150" y="1280" />
              <mxPoint x="50" y="1280" />
              <mxPoint x="50" y="41" />
            </Array>
          </mxGeometry>
        </mxCell>
        <mxCell id="ke13yG8VGX8CHg303tFW-60" value="No" style="edgeLabel;html=1;align=center;verticalAlign=middle;resizable=0;points=[];" vertex="1" connectable="0" parent="ke13yG8VGX8CHg303tFW-36">
          <mxGeometry x="-0.6094" y="-2" relative="1" as="geometry">
            <mxPoint x="-291" y="-160" as="offset" />
          </mxGeometry>
        </mxCell>
        <mxCell id="ke13yG8VGX8CHg303tFW-30" value="Confirm Removal" style="rhombus;whiteSpace=wrap;html=1;fillColor=#ffe6cc;strokeColor=#d79b00;" vertex="1" parent="1">
          <mxGeometry x="812" y="177" width="90" height="84" as="geometry" />
        </mxCell>
        <mxCell id="ke13yG8VGX8CHg303tFW-33" value="Asset Removed" style="rounded=1;whiteSpace=wrap;html=1;arcSize=24;fillColor=#ffe6cc;strokeColor=#d79b00;shadow=0;comic=0;labelBackgroundColor=none;fontFamily=Verdana;fontSize=12;align=center;" vertex="1" parent="1">
          <mxGeometry x="975" y="189" width="120" height="60" as="geometry" />
        </mxCell>
        <mxCell id="ke13yG8VGX8CHg303tFW-130" style="edgeStyle=orthogonalEdgeStyle;rounded=0;orthogonalLoop=1;jettySize=auto;html=1;endArrow=none;endFill=0;" edge="1" parent="1" source="ke13yG8VGX8CHg303tFW-37">
          <mxGeometry relative="1" as="geometry">
            <mxPoint x="1150.8333333333333" y="313" as="targetPoint" />
          </mxGeometry>
        </mxCell>
        <mxCell id="ke13yG8VGX8CHg303tFW-133" value="Asset Number&lt;div&gt;Not Found&lt;/div&gt;" style="edgeLabel;html=1;align=center;verticalAlign=middle;resizable=0;points=[];" vertex="1" connectable="0" parent="ke13yG8VGX8CHg303tFW-130">
          <mxGeometry x="-0.6825" y="-1" relative="1" as="geometry">
            <mxPoint as="offset" />
          </mxGeometry>
        </mxCell>
        <mxCell id="ke13yG8VGX8CHg303tFW-135" style="edgeStyle=orthogonalEdgeStyle;rounded=0;orthogonalLoop=1;jettySize=auto;html=1;entryX=0;entryY=0.5;entryDx=0;entryDy=0;" edge="1" parent="1" source="ke13yG8VGX8CHg303tFW-37" target="ke13yG8VGX8CHg303tFW-131">
          <mxGeometry relative="1" as="geometry">
            <Array as="points">
              <mxPoint x="490" y="540" />
            </Array>
          </mxGeometry>
        </mxCell>
        <mxCell id="ke13yG8VGX8CHg303tFW-136" value="Asset Number&lt;div&gt;Found&lt;/div&gt;" style="edgeLabel;html=1;align=center;verticalAlign=middle;resizable=0;points=[];" vertex="1" connectable="0" parent="ke13yG8VGX8CHg303tFW-135">
          <mxGeometry x="-0.0809" relative="1" as="geometry">
            <mxPoint as="offset" />
          </mxGeometry>
        </mxCell>
        <mxCell id="ke13yG8VGX8CHg303tFW-37" value="Blue Badge Input" style="rhombus;whiteSpace=wrap;html=1;fillColor=#ffe6cc;strokeColor=#d79b00;" vertex="1" parent="1">
          <mxGeometry x="440" y="271" width="90" height="84" as="geometry" />
        </mxCell>
        <mxCell id="ke13yG8VGX8CHg303tFW-165" style="edgeStyle=orthogonalEdgeStyle;rounded=0;orthogonalLoop=1;jettySize=auto;html=1;endArrow=none;endFill=0;" edge="1" parent="1" source="ke13yG8VGX8CHg303tFW-48">
          <mxGeometry relative="1" as="geometry">
            <mxPoint x="660" y="41" as="targetPoint" />
            <Array as="points">
              <mxPoint x="660" y="40" />
            </Array>
          </mxGeometry>
        </mxCell>
        <mxCell id="ke13yG8VGX8CHg303tFW-48" value="Asset Added" style="rounded=1;whiteSpace=wrap;html=1;arcSize=24;fillColor=#ffe6cc;strokeColor=#d79b00;shadow=0;comic=0;labelBackgroundColor=none;fontFamily=Verdana;fontSize=12;align=center;" vertex="1" parent="1">
          <mxGeometry x="450" y="10" width="120" height="60" as="geometry" />
        </mxCell>
        <mxCell id="ke13yG8VGX8CHg303tFW-73" style="edgeStyle=orthogonalEdgeStyle;rounded=0;orthogonalLoop=1;jettySize=auto;html=1;entryX=0;entryY=0.5;entryDx=0;entryDy=0;" edge="1" parent="1" source="ke13yG8VGX8CHg303tFW-53" target="ke13yG8VGX8CHg303tFW-69">
          <mxGeometry relative="1" as="geometry" />
        </mxCell>
        <mxCell id="ke13yG8VGX8CHg303tFW-117" style="edgeStyle=orthogonalEdgeStyle;rounded=0;orthogonalLoop=1;jettySize=auto;html=1;endArrow=none;endFill=0;" edge="1" parent="1" source="ke13yG8VGX8CHg303tFW-53">
          <mxGeometry relative="1" as="geometry">
            <mxPoint x="1150" y="340" as="targetPoint" />
            <Array as="points">
              <mxPoint x="665" y="750" />
              <mxPoint x="1150" y="750" />
            </Array>
          </mxGeometry>
        </mxCell>
        <mxCell id="ke13yG8VGX8CHg303tFW-122" value="Asset Number/Name&lt;div&gt;Not Found&lt;/div&gt;" style="edgeLabel;html=1;align=center;verticalAlign=middle;resizable=0;points=[];" vertex="1" connectable="0" parent="ke13yG8VGX8CHg303tFW-117">
          <mxGeometry x="-0.4816" y="1" relative="1" as="geometry">
            <mxPoint as="offset" />
          </mxGeometry>
        </mxCell>
        <mxCell id="ke13yG8VGX8CHg303tFW-53" value="Blue Badge or Name Input" style="rhombus;whiteSpace=wrap;html=1;fillColor=#ffe6cc;strokeColor=#d79b00;" vertex="1" parent="1">
          <mxGeometry x="620" y="786" width="90" height="84" as="geometry" />
        </mxCell>
        <mxCell id="ke13yG8VGX8CHg303tFW-62" value="Choice&lt;div&gt;2&lt;/div&gt;" style="edgeLabel;html=1;align=center;verticalAlign=middle;resizable=0;points=[];" vertex="1" connectable="0" parent="1">
          <mxGeometry x="270.0033333333333" y="219" as="geometry" />
        </mxCell>
        <mxCell id="ke13yG8VGX8CHg303tFW-63" value="Choice&lt;div&gt;3&lt;/div&gt;" style="edgeLabel;html=1;align=center;verticalAlign=middle;resizable=0;points=[];" vertex="1" connectable="0" parent="1">
          <mxGeometry x="270.0033333333333" y="313" as="geometry" />
        </mxCell>
        <mxCell id="ke13yG8VGX8CHg303tFW-64" value="Choice&lt;div&gt;4&lt;/div&gt;" style="edgeLabel;html=1;align=center;verticalAlign=middle;resizable=0;points=[];" vertex="1" connectable="0" parent="1">
          <mxGeometry x="270.0033333333333" y="748" as="geometry" />
        </mxCell>
        <mxCell id="ke13yG8VGX8CHg303tFW-67" value="&lt;div&gt;Choice&lt;/div&gt;Admin" style="edgeLabel;html=1;align=center;verticalAlign=middle;resizable=0;points=[];" vertex="1" connectable="0" parent="1">
          <mxGeometry x="279.9966666666665" y="982.0000000000002" as="geometry">
            <mxPoint x="-7" y="6" as="offset" />
          </mxGeometry>
        </mxCell>
        <mxCell id="ke13yG8VGX8CHg303tFW-119" style="edgeStyle=orthogonalEdgeStyle;rounded=0;orthogonalLoop=1;jettySize=auto;html=1;endArrow=none;endFill=0;" edge="1" parent="1" source="ke13yG8VGX8CHg303tFW-69">
          <mxGeometry relative="1" as="geometry">
            <mxPoint x="1150" y="476" as="targetPoint" />
          </mxGeometry>
        </mxCell>
        <mxCell id="ke13yG8VGX8CHg303tFW-69" value="Search Assets Process" style="rounded=1;whiteSpace=wrap;html=1;arcSize=24;fillColor=#ffe6cc;strokeColor=#d79b00;shadow=0;comic=0;labelBackgroundColor=none;fontFamily=Verdana;fontSize=12;align=center;" vertex="1" parent="1">
          <mxGeometry x="900" y="798" width="120" height="60" as="geometry" />
        </mxCell>
        <mxCell id="ke13yG8VGX8CHg303tFW-72" value="Asset Number Name&amp;nbsp;&lt;div&gt;Found&lt;/div&gt;" style="edgeLabel;html=1;align=center;verticalAlign=middle;resizable=0;points=[];" vertex="1" connectable="0" parent="1">
          <mxGeometry x="810" y="842.0000000000001" as="geometry">
            <mxPoint x="-8" y="-14" as="offset" />
          </mxGeometry>
        </mxCell>
        <mxCell id="ke13yG8VGX8CHg303tFW-81" value="" style="edgeStyle=orthogonalEdgeStyle;rounded=0;orthogonalLoop=1;jettySize=auto;html=1;" edge="1" parent="1" source="ke13yG8VGX8CHg303tFW-78" target="ke13yG8VGX8CHg303tFW-80">
          <mxGeometry relative="1" as="geometry" />
        </mxCell>
        <mxCell id="ke13yG8VGX8CHg303tFW-95" value="" style="edgeStyle=orthogonalEdgeStyle;rounded=0;orthogonalLoop=1;jettySize=auto;html=1;" edge="1" parent="1" source="ke13yG8VGX8CHg303tFW-78" target="ke13yG8VGX8CHg303tFW-80">
          <mxGeometry relative="1" as="geometry" />
        </mxCell>
        <mxCell id="ke13yG8VGX8CHg303tFW-96" value="Password&lt;div&gt;Correct&lt;/div&gt;" style="edgeLabel;html=1;align=center;verticalAlign=middle;resizable=0;points=[];" vertex="1" connectable="0" parent="ke13yG8VGX8CHg303tFW-95">
          <mxGeometry x="-0.3896" relative="1" as="geometry">
            <mxPoint x="3" as="offset" />
          </mxGeometry>
        </mxCell>
        <mxCell id="ke13yG8VGX8CHg303tFW-123" style="edgeStyle=orthogonalEdgeStyle;rounded=0;orthogonalLoop=1;jettySize=auto;html=1;endArrow=none;endFill=0;" edge="1" parent="1" source="ke13yG8VGX8CHg303tFW-78">
          <mxGeometry relative="1" as="geometry">
            <mxPoint x="1150" y="912" as="targetPoint" />
            <Array as="points">
              <mxPoint x="505" y="912" />
            </Array>
          </mxGeometry>
        </mxCell>
        <mxCell id="ke13yG8VGX8CHg303tFW-124" value="Password&lt;div&gt;Incorrect&lt;/div&gt;" style="edgeLabel;html=1;align=center;verticalAlign=middle;resizable=0;points=[];" vertex="1" connectable="0" parent="ke13yG8VGX8CHg303tFW-123">
          <mxGeometry x="-0.637" y="2" relative="1" as="geometry">
            <mxPoint as="offset" />
          </mxGeometry>
        </mxCell>
        <mxCell id="ke13yG8VGX8CHg303tFW-78" value="Admin&amp;nbsp;&lt;div&gt;Password&lt;/div&gt;&lt;div&gt;Entry&lt;/div&gt;" style="rhombus;whiteSpace=wrap;html=1;fillColor=#ffe6cc;strokeColor=#d79b00;" vertex="1" parent="1">
          <mxGeometry x="460" y="950" width="90" height="84" as="geometry" />
        </mxCell>
        <mxCell id="ke13yG8VGX8CHg303tFW-98" value="" style="edgeStyle=orthogonalEdgeStyle;rounded=0;orthogonalLoop=1;jettySize=auto;html=1;entryX=0;entryY=0.5;entryDx=0;entryDy=0;" edge="1" parent="1" source="ke13yG8VGX8CHg303tFW-80" target="ke13yG8VGX8CHg303tFW-100">
          <mxGeometry relative="1" as="geometry">
            <mxPoint x="819.9999999999998" y="992" as="targetPoint" />
          </mxGeometry>
        </mxCell>
        <mxCell id="ke13yG8VGX8CHg303tFW-99" value="Choice 1" style="edgeLabel;html=1;align=center;verticalAlign=middle;resizable=0;points=[];" vertex="1" connectable="0" parent="ke13yG8VGX8CHg303tFW-98">
          <mxGeometry x="-0.046" y="-3" relative="1" as="geometry">
            <mxPoint y="-3" as="offset" />
          </mxGeometry>
        </mxCell>
        <mxCell id="ke13yG8VGX8CHg303tFW-151" style="edgeStyle=orthogonalEdgeStyle;rounded=0;orthogonalLoop=1;jettySize=auto;html=1;endArrow=none;endFill=0;" edge="1" parent="1" source="ke13yG8VGX8CHg303tFW-80">
          <mxGeometry relative="1" as="geometry">
            <mxPoint x="1150" y="940" as="targetPoint" />
            <Array as="points">
              <mxPoint x="675" y="940" />
            </Array>
          </mxGeometry>
        </mxCell>
        <mxCell id="ke13yG8VGX8CHg303tFW-152" value="Choice 2&lt;div&gt;(Exit Menu)&lt;/div&gt;" style="edgeLabel;html=1;align=center;verticalAlign=middle;resizable=0;points=[];" vertex="1" connectable="0" parent="ke13yG8VGX8CHg303tFW-151">
          <mxGeometry x="-0.3783" y="-1" relative="1" as="geometry">
            <mxPoint x="-16" as="offset" />
          </mxGeometry>
        </mxCell>
        <mxCell id="ke13yG8VGX8CHg303tFW-173" style="edgeStyle=orthogonalEdgeStyle;rounded=0;orthogonalLoop=1;jettySize=auto;html=1;endArrow=none;endFill=0;" edge="1" parent="1" source="ke13yG8VGX8CHg303tFW-80">
          <mxGeometry relative="1" as="geometry">
            <mxPoint x="610" y="1054" as="targetPoint" />
            <Array as="points">
              <mxPoint x="675" y="1054" />
            </Array>
          </mxGeometry>
        </mxCell>
        <mxCell id="ke13yG8VGX8CHg303tFW-174" value="Incorrect&lt;div&gt;Choice&lt;/div&gt;" style="edgeLabel;html=1;align=center;verticalAlign=middle;resizable=0;points=[];" vertex="1" connectable="0" parent="ke13yG8VGX8CHg303tFW-173">
          <mxGeometry x="-0.098" y="1" relative="1" as="geometry">
            <mxPoint x="-12" y="-5" as="offset" />
          </mxGeometry>
        </mxCell>
        <mxCell id="ke13yG8VGX8CHg303tFW-80" value="Admin Menu&lt;div&gt;Choice&lt;/div&gt;" style="rhombus;whiteSpace=wrap;html=1;fillColor=#ffe6cc;strokeColor=#d79b00;" vertex="1" parent="1">
          <mxGeometry x="630" y="950" width="90" height="84" as="geometry" />
        </mxCell>
        <mxCell id="ke13yG8VGX8CHg303tFW-89" style="edgeStyle=orthogonalEdgeStyle;rounded=0;orthogonalLoop=1;jettySize=auto;html=1;entryX=0;entryY=0.5;entryDx=0;entryDy=0;exitX=0.5;exitY=0.988;exitDx=0;exitDy=0;exitPerimeter=0;" edge="1" parent="1" source="ke13yG8VGX8CHg303tFW-30" target="ke13yG8VGX8CHg303tFW-30">
          <mxGeometry relative="1" as="geometry">
            <Array as="points">
              <mxPoint x="857" y="281" />
              <mxPoint x="772" y="281" />
              <mxPoint x="772" y="219" />
            </Array>
          </mxGeometry>
        </mxCell>
        <mxCell id="ke13yG8VGX8CHg303tFW-90" value="Incorrect&lt;div&gt;Choice&lt;/div&gt;" style="edgeLabel;html=1;align=center;verticalAlign=middle;resizable=0;points=[];" vertex="1" connectable="0" parent="ke13yG8VGX8CHg303tFW-89">
          <mxGeometry x="-0.3233" relative="1" as="geometry">
            <mxPoint as="offset" />
          </mxGeometry>
        </mxCell>
        <mxCell id="ke13yG8VGX8CHg303tFW-104" style="edgeStyle=orthogonalEdgeStyle;rounded=0;orthogonalLoop=1;jettySize=auto;html=1;entryX=1;entryY=0.5;entryDx=0;entryDy=0;exitX=1;exitY=0.5;exitDx=0;exitDy=0;" edge="1" parent="1" source="ke13yG8VGX8CHg303tFW-100" target="ke13yG8VGX8CHg303tFW-101">
          <mxGeometry relative="1" as="geometry" />
        </mxCell>
        <mxCell id="ke13yG8VGX8CHg303tFW-100" value="Invoke Removal All Assets" style="rounded=1;whiteSpace=wrap;html=1;fillColor=#ffe6cc;strokeColor=#d79b00;" vertex="1" parent="1">
          <mxGeometry x="894" y="962" width="120" height="60" as="geometry" />
        </mxCell>
        <mxCell id="ke13yG8VGX8CHg303tFW-103" style="edgeStyle=orthogonalEdgeStyle;rounded=0;orthogonalLoop=1;jettySize=auto;html=1;entryX=0;entryY=0.5;entryDx=0;entryDy=0;" edge="1" parent="1" source="ke13yG8VGX8CHg303tFW-101" target="ke13yG8VGX8CHg303tFW-80">
          <mxGeometry relative="1" as="geometry" />
        </mxCell>
        <mxCell id="ke13yG8VGX8CHg303tFW-105" value="No" style="edgeLabel;html=1;align=center;verticalAlign=middle;resizable=0;points=[];" vertex="1" connectable="0" parent="ke13yG8VGX8CHg303tFW-103">
          <mxGeometry x="-0.383" relative="1" as="geometry">
            <mxPoint as="offset" />
          </mxGeometry>
        </mxCell>
        <mxCell id="ke13yG8VGX8CHg303tFW-109" style="edgeStyle=orthogonalEdgeStyle;rounded=0;orthogonalLoop=1;jettySize=auto;html=1;entryX=1;entryY=0.5;entryDx=0;entryDy=0;exitX=0.5;exitY=0;exitDx=0;exitDy=0;" edge="1" parent="1">
          <mxGeometry relative="1" as="geometry">
            <mxPoint x="954" y="1120" as="sourcePoint" />
            <mxPoint x="866" y="1073" as="targetPoint" />
            <Array as="points">
              <mxPoint x="954" y="1073" />
            </Array>
          </mxGeometry>
        </mxCell>
        <mxCell id="ke13yG8VGX8CHg303tFW-111" value="Yes" style="edgeLabel;html=1;align=center;verticalAlign=middle;resizable=0;points=[];" vertex="1" connectable="0" parent="ke13yG8VGX8CHg303tFW-109">
          <mxGeometry x="-0.1271" y="1" relative="1" as="geometry">
            <mxPoint x="-14" as="offset" />
          </mxGeometry>
        </mxCell>
        <mxCell id="ke13yG8VGX8CHg303tFW-101" value="Confirm Removal" style="rhombus;whiteSpace=wrap;html=1;fillColor=#ffe6cc;strokeColor=#d79b00;" vertex="1" parent="1">
          <mxGeometry x="909" y="1120" width="90" height="84" as="geometry" />
        </mxCell>
        <mxCell id="ke13yG8VGX8CHg303tFW-110" style="edgeStyle=orthogonalEdgeStyle;rounded=0;orthogonalLoop=1;jettySize=auto;html=1;entryX=0;entryY=0.5;entryDx=0;entryDy=0;" edge="1" parent="1" source="ke13yG8VGX8CHg303tFW-108" target="ke13yG8VGX8CHg303tFW-80">
          <mxGeometry relative="1" as="geometry" />
        </mxCell>
        <mxCell id="ke13yG8VGX8CHg303tFW-108" value="Remove All Assets" style="rounded=1;whiteSpace=wrap;html=1;fillColor=#ffe6cc;strokeColor=#d79b00;" vertex="1" parent="1">
          <mxGeometry x="746" y="1043" width="120" height="60" as="geometry" />
        </mxCell>
        <mxCell id="ke13yG8VGX8CHg303tFW-116" value="" style="endArrow=none;html=1;rounded=0;exitX=1;exitY=0.5;exitDx=0;exitDy=0;" edge="1" parent="1" source="ke13yG8VGX8CHg303tFW-33">
          <mxGeometry width="50" height="50" relative="1" as="geometry">
            <mxPoint x="1190" y="270" as="sourcePoint" />
            <mxPoint x="1150" y="220" as="targetPoint" />
          </mxGeometry>
        </mxCell>
        <mxCell id="ke13yG8VGX8CHg303tFW-125" style="edgeStyle=orthogonalEdgeStyle;rounded=0;orthogonalLoop=1;jettySize=auto;html=1;entryX=0.5;entryY=1;entryDx=0;entryDy=0;exitX=1;exitY=0.5;exitDx=0;exitDy=0;" edge="1" parent="1" source="ke13yG8VGX8CHg303tFW-15" target="ke13yG8VGX8CHg303tFW-15">
          <mxGeometry relative="1" as="geometry">
            <mxPoint x="170" y="140" as="sourcePoint" />
            <Array as="points">
              <mxPoint x="200" y="136" />
              <mxPoint x="200" y="196" />
              <mxPoint x="128" y="196" />
            </Array>
          </mxGeometry>
        </mxCell>
        <mxCell id="ke13yG8VGX8CHg303tFW-126" value="Incorrect&lt;div&gt;Choice&lt;/div&gt;" style="edgeLabel;html=1;align=center;verticalAlign=middle;resizable=0;points=[];" vertex="1" connectable="0" parent="ke13yG8VGX8CHg303tFW-125">
          <mxGeometry x="0.2242" y="1" relative="1" as="geometry">
            <mxPoint x="-11" as="offset" />
          </mxGeometry>
        </mxCell>
        <mxCell id="ke13yG8VGX8CHg303tFW-137" style="edgeStyle=orthogonalEdgeStyle;rounded=0;orthogonalLoop=1;jettySize=auto;html=1;endArrow=none;endFill=0;exitX=0.5;exitY=0;exitDx=0;exitDy=0;" edge="1" parent="1" source="ke13yG8VGX8CHg303tFW-131">
          <mxGeometry relative="1" as="geometry">
            <mxPoint x="1150" y="329.9999999999999" as="targetPoint" />
            <Array as="points">
              <mxPoint x="553" y="340" />
              <mxPoint x="1150" y="340" />
            </Array>
          </mxGeometry>
        </mxCell>
        <mxCell id="ke13yG8VGX8CHg303tFW-138" value="Choice 7&lt;div&gt;(Exit Menu)&lt;/div&gt;" style="edgeLabel;html=1;align=center;verticalAlign=middle;resizable=0;points=[];" vertex="1" connectable="0" parent="ke13yG8VGX8CHg303tFW-137">
          <mxGeometry x="-0.2543" relative="1" as="geometry">
            <mxPoint x="-127" y="60" as="offset" />
          </mxGeometry>
        </mxCell>
        <mxCell id="ke13yG8VGX8CHg303tFW-145" style="edgeStyle=orthogonalEdgeStyle;rounded=0;orthogonalLoop=1;jettySize=auto;html=1;entryX=0;entryY=0.5;entryDx=0;entryDy=0;" edge="1" parent="1" source="ke13yG8VGX8CHg303tFW-131" target="ke13yG8VGX8CHg303tFW-139">
          <mxGeometry relative="1" as="geometry">
            <Array as="points">
              <mxPoint x="610" y="540" />
              <mxPoint x="610" y="463" />
            </Array>
          </mxGeometry>
        </mxCell>
        <mxCell id="ke13yG8VGX8CHg303tFW-153" value="Choice&lt;div&gt;1&lt;/div&gt;" style="edgeLabel;html=1;align=center;verticalAlign=middle;resizable=0;points=[];" vertex="1" connectable="0" parent="ke13yG8VGX8CHg303tFW-145">
          <mxGeometry x="0.6364" y="1" relative="1" as="geometry">
            <mxPoint as="offset" />
          </mxGeometry>
        </mxCell>
        <mxCell id="ke13yG8VGX8CHg303tFW-146" style="edgeStyle=orthogonalEdgeStyle;rounded=0;orthogonalLoop=1;jettySize=auto;html=1;entryX=0;entryY=0.5;entryDx=0;entryDy=0;" edge="1" parent="1" source="ke13yG8VGX8CHg303tFW-131" target="ke13yG8VGX8CHg303tFW-142">
          <mxGeometry relative="1" as="geometry" />
        </mxCell>
        <mxCell id="ke13yG8VGX8CHg303tFW-154" value="Choice&lt;div&gt;2&lt;/div&gt;" style="edgeLabel;html=1;align=center;verticalAlign=middle;resizable=0;points=[];" vertex="1" connectable="0" parent="ke13yG8VGX8CHg303tFW-146">
          <mxGeometry x="0.1472" y="-1" relative="1" as="geometry">
            <mxPoint as="offset" />
          </mxGeometry>
        </mxCell>
        <mxCell id="ke13yG8VGX8CHg303tFW-147" style="edgeStyle=orthogonalEdgeStyle;rounded=0;orthogonalLoop=1;jettySize=auto;html=1;entryX=0;entryY=0.5;entryDx=0;entryDy=0;" edge="1" parent="1" source="ke13yG8VGX8CHg303tFW-131" target="ke13yG8VGX8CHg303tFW-143">
          <mxGeometry relative="1" as="geometry">
            <Array as="points">
              <mxPoint x="610" y="540" />
              <mxPoint x="610" y="620" />
            </Array>
          </mxGeometry>
        </mxCell>
        <mxCell id="ke13yG8VGX8CHg303tFW-155" value="Choice&lt;div&gt;3&lt;/div&gt;" style="edgeLabel;html=1;align=center;verticalAlign=middle;resizable=0;points=[];" vertex="1" connectable="0" parent="ke13yG8VGX8CHg303tFW-147">
          <mxGeometry x="0.5798" relative="1" as="geometry">
            <mxPoint as="offset" />
          </mxGeometry>
        </mxCell>
        <mxCell id="ke13yG8VGX8CHg303tFW-148" style="edgeStyle=orthogonalEdgeStyle;rounded=0;orthogonalLoop=1;jettySize=auto;html=1;entryX=0;entryY=0.5;entryDx=0;entryDy=0;" edge="1" parent="1" source="ke13yG8VGX8CHg303tFW-131" target="ke13yG8VGX8CHg303tFW-141">
          <mxGeometry relative="1" as="geometry">
            <Array as="points">
              <mxPoint x="610" y="540" />
              <mxPoint x="610" y="410" />
              <mxPoint x="860" y="410" />
              <mxPoint x="860" y="463" />
            </Array>
          </mxGeometry>
        </mxCell>
        <mxCell id="ke13yG8VGX8CHg303tFW-156" value="Choice&lt;div&gt;4&lt;/div&gt;" style="edgeLabel;html=1;align=center;verticalAlign=middle;resizable=0;points=[];" vertex="1" connectable="0" parent="ke13yG8VGX8CHg303tFW-148">
          <mxGeometry x="0.8374" y="2" relative="1" as="geometry">
            <mxPoint as="offset" />
          </mxGeometry>
        </mxCell>
        <mxCell id="ke13yG8VGX8CHg303tFW-168" style="edgeStyle=orthogonalEdgeStyle;rounded=0;orthogonalLoop=1;jettySize=auto;html=1;endArrow=none;endFill=0;" edge="1" parent="1" source="ke13yG8VGX8CHg303tFW-131">
          <mxGeometry relative="1" as="geometry">
            <mxPoint x="490" y="600" as="targetPoint" />
            <Array as="points">
              <mxPoint x="553" y="610" />
              <mxPoint x="490" y="610" />
            </Array>
          </mxGeometry>
        </mxCell>
        <mxCell id="ke13yG8VGX8CHg303tFW-169" value="Incorrect&lt;div&gt;Choice&lt;/div&gt;" style="edgeLabel;html=1;align=center;verticalAlign=middle;resizable=0;points=[];" vertex="1" connectable="0" parent="ke13yG8VGX8CHg303tFW-168">
          <mxGeometry x="0.0891" y="-2" relative="1" as="geometry">
            <mxPoint as="offset" />
          </mxGeometry>
        </mxCell>
        <mxCell id="ke13yG8VGX8CHg303tFW-131" value="Update Asset&lt;div&gt;Menu&lt;/div&gt;" style="rhombus;whiteSpace=wrap;html=1;fillColor=#ffe6cc;strokeColor=#d79b00;" vertex="1" parent="1">
          <mxGeometry x="508" y="498" width="90" height="84" as="geometry" />
        </mxCell>
        <mxCell id="ke13yG8VGX8CHg303tFW-162" style="edgeStyle=orthogonalEdgeStyle;rounded=0;orthogonalLoop=1;jettySize=auto;html=1;endArrow=none;endFill=0;" edge="1" parent="1" source="ke13yG8VGX8CHg303tFW-139">
          <mxGeometry relative="1" as="geometry">
            <mxPoint x="830" y="670" as="targetPoint" />
          </mxGeometry>
        </mxCell>
        <mxCell id="ke13yG8VGX8CHg303tFW-139" value="Invoke Update Asset Name Process&lt;div&gt;(With Validation)&lt;br&gt;&lt;/div&gt;" style="rounded=1;whiteSpace=wrap;html=1;arcSize=24;fillColor=#ffe6cc;strokeColor=#d79b00;shadow=0;comic=0;labelBackgroundColor=none;fontFamily=Verdana;fontSize=12;align=center;" vertex="1" parent="1">
          <mxGeometry x="671" y="433" width="120" height="60" as="geometry" />
        </mxCell>
        <mxCell id="ke13yG8VGX8CHg303tFW-161" style="edgeStyle=orthogonalEdgeStyle;rounded=0;orthogonalLoop=1;jettySize=auto;html=1;endArrow=none;endFill=0;" edge="1" parent="1" source="ke13yG8VGX8CHg303tFW-140">
          <mxGeometry relative="1" as="geometry">
            <mxPoint x="1100" y="620" as="targetPoint" />
          </mxGeometry>
        </mxCell>
        <mxCell id="ke13yG8VGX8CHg303tFW-140" value="Invoke Update Asset Note Process&lt;div&gt;(With Validation)&lt;br&gt;&lt;/div&gt;" style="rounded=1;whiteSpace=wrap;html=1;arcSize=24;fillColor=#ffe6cc;strokeColor=#d79b00;shadow=0;comic=0;labelBackgroundColor=none;fontFamily=Verdana;fontSize=12;align=center;" vertex="1" parent="1">
          <mxGeometry x="940" y="590" width="120" height="60" as="geometry" />
        </mxCell>
        <mxCell id="ke13yG8VGX8CHg303tFW-159" style="edgeStyle=orthogonalEdgeStyle;rounded=0;orthogonalLoop=1;jettySize=auto;html=1;entryX=0;entryY=0.5;entryDx=0;entryDy=0;" edge="1" parent="1" source="ke13yG8VGX8CHg303tFW-141" target="ke13yG8VGX8CHg303tFW-131">
          <mxGeometry relative="1" as="geometry">
            <Array as="points">
              <mxPoint x="1100" y="463" />
              <mxPoint x="1100" y="670" />
              <mxPoint x="490" y="670" />
              <mxPoint x="490" y="540" />
            </Array>
          </mxGeometry>
        </mxCell>
        <mxCell id="ke13yG8VGX8CHg303tFW-141" value="Invoke Update Asset Department Process&lt;div&gt;(With Validation)&lt;br&gt;&lt;/div&gt;" style="rounded=1;whiteSpace=wrap;html=1;arcSize=24;fillColor=#ffe6cc;strokeColor=#d79b00;shadow=0;comic=0;labelBackgroundColor=none;fontFamily=Verdana;fontSize=12;align=center;" vertex="1" parent="1">
          <mxGeometry x="940" y="433" width="120" height="60" as="geometry" />
        </mxCell>
        <mxCell id="ke13yG8VGX8CHg303tFW-163" style="edgeStyle=orthogonalEdgeStyle;rounded=0;orthogonalLoop=1;jettySize=auto;html=1;endArrow=none;endFill=0;" edge="1" parent="1" source="ke13yG8VGX8CHg303tFW-142">
          <mxGeometry relative="1" as="geometry">
            <mxPoint x="830" y="670" as="targetPoint" />
          </mxGeometry>
        </mxCell>
        <mxCell id="ke13yG8VGX8CHg303tFW-142" value="Invoke Update Asset Device Type Process&lt;div&gt;(With Validation)&lt;br&gt;&lt;/div&gt;" style="rounded=1;whiteSpace=wrap;html=1;arcSize=24;fillColor=#ffe6cc;strokeColor=#d79b00;shadow=0;comic=0;labelBackgroundColor=none;fontFamily=Verdana;fontSize=12;align=center;" vertex="1" parent="1">
          <mxGeometry x="671" y="510" width="120" height="60" as="geometry" />
        </mxCell>
        <mxCell id="ke13yG8VGX8CHg303tFW-164" style="edgeStyle=orthogonalEdgeStyle;rounded=0;orthogonalLoop=1;jettySize=auto;html=1;endArrow=none;endFill=0;" edge="1" parent="1" source="ke13yG8VGX8CHg303tFW-143">
          <mxGeometry relative="1" as="geometry">
            <mxPoint x="830" y="670" as="targetPoint" />
          </mxGeometry>
        </mxCell>
        <mxCell id="ke13yG8VGX8CHg303tFW-143" value="Invoke Update Asset Description Process&lt;div&gt;(With Validation)&lt;br&gt;&lt;/div&gt;" style="rounded=1;whiteSpace=wrap;html=1;arcSize=24;fillColor=#ffe6cc;strokeColor=#d79b00;shadow=0;comic=0;labelBackgroundColor=none;fontFamily=Verdana;fontSize=12;align=center;" vertex="1" parent="1">
          <mxGeometry x="671" y="590" width="120" height="60" as="geometry" />
        </mxCell>
        <mxCell id="ke13yG8VGX8CHg303tFW-160" style="edgeStyle=orthogonalEdgeStyle;rounded=0;orthogonalLoop=1;jettySize=auto;html=1;endArrow=none;endFill=0;" edge="1" parent="1" source="ke13yG8VGX8CHg303tFW-144">
          <mxGeometry relative="1" as="geometry">
            <mxPoint x="1100" y="540" as="targetPoint" />
          </mxGeometry>
        </mxCell>
        <mxCell id="ke13yG8VGX8CHg303tFW-144" value="Invoke Update Asset Room Number Process&lt;div&gt;(With Validation)&lt;br&gt;&lt;/div&gt;" style="rounded=1;whiteSpace=wrap;html=1;arcSize=24;fillColor=#ffe6cc;strokeColor=#d79b00;shadow=0;comic=0;labelBackgroundColor=none;fontFamily=Verdana;fontSize=12;align=center;" vertex="1" parent="1">
          <mxGeometry x="940" y="510" width="120" height="60" as="geometry" />
        </mxCell>
        <mxCell id="ke13yG8VGX8CHg303tFW-149" style="edgeStyle=orthogonalEdgeStyle;rounded=0;orthogonalLoop=1;jettySize=auto;html=1;entryX=0;entryY=0.5;entryDx=0;entryDy=0;" edge="1" parent="1" target="ke13yG8VGX8CHg303tFW-144">
          <mxGeometry relative="1" as="geometry">
            <mxPoint x="598" y="540" as="sourcePoint" />
            <mxPoint x="919" y="540" as="targetPoint" />
            <Array as="points">
              <mxPoint x="610" y="540" />
              <mxPoint x="610" y="410" />
              <mxPoint x="860" y="410" />
              <mxPoint x="860" y="540" />
            </Array>
          </mxGeometry>
        </mxCell>
        <mxCell id="ke13yG8VGX8CHg303tFW-157" value="Choice&lt;div&gt;5&lt;/div&gt;" style="edgeLabel;html=1;align=center;verticalAlign=middle;resizable=0;points=[];" vertex="1" connectable="0" parent="ke13yG8VGX8CHg303tFW-149">
          <mxGeometry x="0.865" y="2" relative="1" as="geometry">
            <mxPoint as="offset" />
          </mxGeometry>
        </mxCell>
        <mxCell id="ke13yG8VGX8CHg303tFW-150" style="edgeStyle=orthogonalEdgeStyle;rounded=0;orthogonalLoop=1;jettySize=auto;html=1;entryX=0;entryY=0.5;entryDx=0;entryDy=0;" edge="1" parent="1" target="ke13yG8VGX8CHg303tFW-140">
          <mxGeometry relative="1" as="geometry">
            <mxPoint x="598" y="540" as="sourcePoint" />
            <mxPoint x="920" y="620" as="targetPoint" />
            <Array as="points">
              <mxPoint x="610" y="540" />
              <mxPoint x="610" y="410" />
              <mxPoint x="860" y="410" />
              <mxPoint x="860" y="620" />
            </Array>
          </mxGeometry>
        </mxCell>
        <mxCell id="ke13yG8VGX8CHg303tFW-158" value="Choice&lt;div&gt;6&lt;/div&gt;" style="edgeLabel;html=1;align=center;verticalAlign=middle;resizable=0;points=[];" vertex="1" connectable="0" parent="ke13yG8VGX8CHg303tFW-150">
          <mxGeometry x="0.8778" relative="1" as="geometry">
            <mxPoint as="offset" />
          </mxGeometry>
        </mxCell>
        <mxCell id="ke13yG8VGX8CHg303tFW-166" value="Exit" style="ellipse;html=1;shape=endState;fillColor=#000000;strokeColor=#ff0000;" vertex="1" parent="1">
          <mxGeometry x="555" y="1176" width="30" height="30" as="geometry" />
        </mxCell>
        <mxCell id="ke13yG8VGX8CHg303tFW-175" style="edgeStyle=orthogonalEdgeStyle;rounded=0;orthogonalLoop=1;jettySize=auto;html=1;entryX=1;entryY=0.5;entryDx=0;entryDy=0;" edge="1" parent="1" source="ke13yG8VGX8CHg303tFW-101" target="ke13yG8VGX8CHg303tFW-101">
          <mxGeometry relative="1" as="geometry">
            <Array as="points">
              <mxPoint x="954" y="1240" />
              <mxPoint x="1019" y="1240" />
              <mxPoint x="1019" y="1162" />
            </Array>
          </mxGeometry>
        </mxCell>
        <mxCell id="ke13yG8VGX8CHg303tFW-176" value="Incorrect&lt;div&gt;Choice&lt;/div&gt;" style="edgeLabel;html=1;align=center;verticalAlign=middle;resizable=0;points=[];" vertex="1" connectable="0" parent="ke13yG8VGX8CHg303tFW-175">
          <mxGeometry x="0.3942" y="1" relative="1" as="geometry">
            <mxPoint x="-28" y="38" as="offset" />
          </mxGeometry>
        </mxCell>
      </root>
    </mxGraphModel>
  </diagram>
</mxfile>
